<svg width="74" height="114" viewBox="0 0 74 114" fill="none" xmlns="http://www.w3.org/2000/svg">
<path d="M37 56.9233C37 46.4413 45.2864 37.9517 55.5 37.9517C65.7218 37.9517 74 46.4332 74 56.9233C74 67.4053 65.7218 75.895 55.5 75.895C45.2945 75.895 37 67.4134 37 56.9233Z" fill="#1ABCFE"/>
<path d="M0 94.8746C0 84.3926 8.28637 75.8948 18.5 75.8948H37V94.8746C37 105.348 28.7136 113.846 18.5 113.846C8.28637 113.846 0 105.348 0 94.8746Z" fill="#0ACF83"/>
<path d="M37 0V37.9514H55.5C65.7218 37.9514 74 29.4536 74 18.9716C74 8.4978 65.7218 0 55.5 0H37Z" fill="#FF7262"/>
<path d="M0 18.9716C0 29.4536 8.28637 37.9514 18.5 37.9514H37V0H18.5C8.28637 0 0 8.4978 0 18.9716Z" fill="#F24E1E"/>
<path d="M0 56.9233C0 67.4053 8.28637 75.895 18.5 75.895H37V37.9517H18.5C8.28637 37.9517 0 46.4332 0 56.9233Z" fill="#A259FF"/>
</svg>
