<svg width="120" height="120" viewBox="0 0 120 120" fill="none" xmlns="http://www.w3.org/2000/svg">
<g clip-path="url(#clip0_72_154)">
<path fill-rule="evenodd" clip-rule="evenodd" d="M60 0C93.138 0 120 27.5396 120 61.5176C120 88.6916 102.828 111.744 79.002 119.886C75.96 120.492 74.88 118.571 74.88 116.933C74.88 114.905 74.952 108.281 74.952 100.049C74.952 94.3128 73.032 90.5691 70.878 88.6611C84.24 87.1371 98.28 81.9346 98.28 58.3066C98.28 51.5866 95.952 46.1029 92.1 41.7949C92.724 40.2409 94.782 33.9837 91.512 25.5117C91.512 25.5117 86.484 23.8633 75.03 31.8193C70.236 30.4573 65.1 29.772 60 29.748C54.9 29.772 49.77 30.4573 44.982 31.8193C33.516 23.8633 28.476 25.5117 28.476 25.5117C25.218 33.9837 27.276 40.2409 27.894 41.7949C24.06 46.1029 21.714 51.5866 21.714 58.3066C21.714 81.8746 35.724 87.1569 49.05 88.7109C47.334 90.2469 45.78 92.9566 45.24 96.9346C41.82 98.5066 33.132 101.227 27.78 91.8252C27.78 91.8252 24.606 85.9144 18.582 85.4824C18.582 85.4824 12.732 85.4047 18.174 89.2207C18.174 89.2207 22.104 91.1107 24.834 98.2207C24.834 98.2207 28.356 109.2 45.048 105.48C45.078 110.622 45.132 115.469 45.132 116.933C45.132 118.559 44.028 120.462 41.034 119.892C17.19 111.762 0 88.6976 0 61.5176C0 27.5396 26.868 0 60 0Z" fill="white"/>
</g>
<defs>
<clipPath id="clip0_72_154">
<rect width="120" height="120" fill="white"/>
</clipPath>
</defs>
</svg>
