<svg width="120" height="120" viewBox="0 0 120 120" fill="none" xmlns="http://www.w3.org/2000/svg">
<g clip-path="url(#clip0_72_82)">
<path d="M60 120C93.1371 120 120 93.1371 120 60C120 26.8629 93.1371 0 60 0C26.8629 0 0 26.8629 0 60C0 93.1371 26.8629 120 60 120Z" fill="#13AA52"/>
<path d="M76.0382 52.6688C72.2484 35.9426 63.2917 30.443 62.3273 28.3418C61.2726 26.8594 60.2038 24.2227 60.2038 24.2227C60.1863 24.1781 60.1581 24.0996 60.1253 24.0234C60.0163 25.5059 59.9601 26.0777 58.5585 27.573C56.3882 29.2699 45.2531 38.6133 44.3472 57.6164C43.5023 75.3398 57.1499 85.9008 58.9956 87.2473L59.2054 87.3961V87.3832C59.2171 87.4723 59.7913 91.602 60.1945 95.9777H61.6406C61.9799 92.8846 62.4884 89.8124 63.164 86.775L63.2812 86.6988C64.1068 86.1069 64.8939 85.463 65.6378 84.7711L65.7222 84.6949C69.6456 81.0703 76.6991 72.6867 76.63 59.3203C76.6154 57.0907 76.4175 54.866 76.0382 52.6688ZM60.0409 77.2406C60.0409 77.2406 60.0409 52.3828 60.8613 52.3875C61.5011 52.3875 62.3296 84.4512 62.3296 84.4512C61.1906 84.3141 60.0409 79.1742 60.0409 77.2406Z" fill="white"/>
</g>
<defs>
<clipPath id="clip0_72_82">
<rect width="120" height="120" fill="white"/>
</clipPath>
</defs>
</svg>
