<svg width="120" height="120" viewBox="0 0 120 120" fill="none" xmlns="http://www.w3.org/2000/svg">
<path d="M89.056 112.507C88.6097 112.744 88.6472 112.819 89.0747 112.601C89.2135 112.545 89.3297 112.466 89.431 112.372C89.431 112.294 89.431 112.294 89.056 112.507ZM89.9559 112.02C89.7422 112.196 89.7422 112.196 89.9972 112.08C90.1322 112.001 90.2522 111.926 90.2522 111.904C90.2522 111.802 90.1922 111.825 89.9559 112.02ZM90.5409 111.667C90.3272 111.844 90.3272 111.844 90.5822 111.727C90.7209 111.649 90.8372 111.566 90.8372 111.547C90.8372 111.454 90.7772 111.472 90.5409 111.667ZM91.1334 111.319C90.9197 111.495 90.9197 111.495 91.1672 111.375C91.3059 111.3 91.4221 111.221 91.4221 111.199C91.4221 111.105 91.3621 111.124 91.1334 111.319ZM91.9321 110.79C91.5234 111.064 91.3809 111.24 91.7559 111.045C92.0071 110.891 92.4346 110.554 92.3596 110.554C92.1984 110.614 92.0634 110.715 91.9284 110.79H91.9321ZM56.072 0.0275632C55.7983 0.0463135 54.977 0.121315 54.2571 0.181316C37.2026 1.72635 21.2468 10.9065 11.1334 25.0481C5.54233 32.7995 1.91244 41.8034 0.543733 51.2574C0.0599981 54.5574 0 55.5324 0 60.0063C0 64.4764 0.0599981 65.4364 0.543733 68.7365C3.80988 91.2782 19.8444 110.201 41.5787 117.214C45.4898 118.462 49.5885 119.325 54.2571 119.854C56.072 120.049 63.9205 120.049 65.7355 119.854C73.8052 118.954 80.6187 116.962 87.361 113.524C88.396 112.999 88.591 112.86 88.4522 112.744C85.1523 108.39 81.9124 104.032 78.6688 99.6371L69.0803 86.6881L57.0695 68.894C53.0646 62.9388 49.0447 56.9987 44.9611 51.1036C44.9198 51.1036 44.8673 59.0125 44.8448 68.6577C44.8036 85.5518 44.8036 86.2381 44.5899 86.6281C44.3761 87.0968 44.0236 87.4868 43.5549 87.7043C43.1837 87.8806 42.8499 87.9181 41.0762 87.9181H39.0475L38.5188 87.5881C38.1888 87.3743 37.9151 87.0781 37.7388 86.7293L37.4838 86.2006L37.5026 62.6838L37.5438 39.1671L37.9151 38.6983C38.1513 38.4096 38.4438 38.1733 38.7738 37.9971C39.265 37.7608 39.46 37.7233 41.4887 37.7233C43.8699 37.7233 44.2636 37.8171 44.8898 38.5033C49.7497 45.7485 54.5945 53.0124 59.3606 60.2988C67.1567 72.119 77.7988 88.2481 83.0299 96.1608L92.5434 110.557L93.0121 110.246C97.5832 107.197 101.742 103.567 105.33 99.4271C112.89 90.7719 117.795 80.1254 119.456 68.7627C119.94 65.4626 120 64.4839 120 60.0138C120 55.5399 119.94 54.5837 119.456 51.2836C116.19 28.7419 100.156 9.81901 78.4213 2.80262C74.3564 1.51634 70.1753 0.638826 65.9417 0.188816C64.8055 0.0725641 57.0507 -0.0661887 56.0758 0.0350633L56.072 0.0275632ZM80.6225 36.3171C81.1887 36.5871 81.6162 37.0971 81.8112 37.6821C81.9124 37.9971 81.9312 44.5185 81.9124 59.2075L81.8712 80.2979L78.1626 74.5978L74.4314 68.894V53.5824C74.4314 43.6559 74.4727 38.0908 74.5252 37.8171C74.7014 37.1908 75.1289 36.6658 75.6989 36.3358C76.1639 36.0995 76.3439 36.0808 78.2001 36.0808C79.9363 36.0808 80.2325 36.0995 80.6225 36.3171Z" fill="white"/>
</svg>
