<svg width="200" height="57" viewBox="0 0 200 57" fill="none" xmlns="http://www.w3.org/2000/svg">
<path d="M183.981 20.0448C183.494 20.0448 183.021 20.1454 182.602 20.3825L169.342 28.04C168.484 28.5346 167.962 29.4682 167.962 30.4617V45.7489C167.962 46.7416 168.484 47.674 169.342 48.1698L172.805 50.1689C174.487 50.998 175.107 50.9851 175.873 50.9851C178.364 50.9851 179.786 49.4735 179.786 46.8468V31.7564C179.786 31.5432 179.602 31.3906 179.392 31.3906H177.731C177.518 31.3906 177.337 31.5432 177.337 31.7564V46.8468C177.337 48.0109 176.124 49.182 174.156 48.1979L170.552 46.0866C170.425 46.0173 170.327 45.8948 170.327 45.7489V30.4613C170.327 30.3165 170.424 30.169 170.552 30.0954L183.784 22.4665C183.844 22.4315 183.912 22.4131 183.981 22.4131C184.05 22.4131 184.118 22.4315 184.178 22.4665L197.41 30.0958C197.536 30.1717 197.636 30.3122 197.636 30.462V45.7493C197.636 45.8952 197.562 46.0447 197.438 46.1151L184.178 53.7444C184.065 53.8121 183.908 53.8121 183.784 53.7444L180.378 51.7176C180.326 51.6895 180.268 51.6747 180.209 51.6747C180.15 51.6747 180.092 51.6895 180.04 51.7176C179.1 52.2505 178.923 52.3123 178.041 52.6183C177.824 52.6942 177.494 52.812 178.153 53.1818L182.602 55.7995C183.021 56.0415 183.497 56.1678 183.981 56.1657C184.465 56.1687 184.942 56.0424 185.361 55.7999L198.621 48.1702C199.479 47.6713 200 46.742 200 45.7493V30.4617C200 29.4686 199.479 28.5365 198.621 28.0408L185.361 20.3833C184.945 20.1458 184.468 20.0452 183.981 20.0452L183.981 20.0448Z" fill="#83CD29"/>
<path d="M187.528 30.9685C183.752 30.9685 181.504 32.5755 181.504 35.248C181.504 38.1467 183.736 38.9433 187.36 39.3018C191.695 39.7263 192.033 40.3629 192.033 41.2163C192.033 42.6966 190.853 43.3277 188.064 43.3277C184.559 43.3277 183.789 42.4528 183.531 40.7096C183.5 40.5226 183.356 40.3715 183.165 40.3715H181.447C181.236 40.3715 181.053 40.5539 181.053 40.766C181.053 42.9975 182.267 45.6363 188.064 45.6363C192.259 45.6363 194.679 43.9894 194.679 41.1036C194.679 38.2433 192.725 37.4752 188.654 36.9372C184.542 36.3929 184.15 36.1265 184.15 35.1635C184.15 34.3684 184.482 33.3049 187.528 33.3049C190.249 33.3049 191.255 33.8918 191.667 35.7266C191.703 35.8987 191.855 36.0361 192.033 36.0361H193.751C193.856 36.0361 193.959 35.9711 194.032 35.8952C194.104 35.8142 194.155 35.723 194.145 35.6139C193.878 32.4546 191.772 30.9685 187.528 30.9685Z" fill="#83CD29"/>
<path d="M106.025 0.000181774C105.877 0.00028009 105.731 0.0389837 105.603 0.112481C105.475 0.187323 105.368 0.294196 105.294 0.42257C105.22 0.550944 105.181 0.69639 105.18 0.84458V22.3818C105.18 22.5931 105.082 22.7825 104.899 22.8885C104.809 22.9408 104.707 22.9684 104.603 22.9684C104.5 22.9684 104.398 22.9408 104.308 22.8885L100.789 20.8617C100.532 20.7132 100.241 20.6349 99.9439 20.6349C99.6474 20.6349 99.356 20.7132 99.0993 20.8617L85.0509 28.9695C84.5258 29.2728 84.2065 29.8554 84.2065 30.4619V46.6781C84.2065 47.2838 84.5262 47.8386 85.0509 48.1419L99.0993 56.2501C99.3559 56.399 99.6473 56.4775 99.9439 56.4775C100.241 56.4775 100.532 56.399 100.789 56.2501L114.837 48.1419C115.094 47.9938 115.308 47.7805 115.456 47.5235C115.604 47.2664 115.682 46.9748 115.682 46.6781V6.25022C115.681 5.9465 115.6 5.64833 115.447 5.38614C115.294 5.12395 115.074 4.90714 114.809 4.75785L106.447 0.0843086C106.316 0.0111378 106.171 -0.00177466 106.025 0.000181774ZM15.6531 20.2423C15.3855 20.2528 15.1335 20.2998 14.8932 20.4391L0.844408 28.5473C0.587062 28.6952 0.373401 28.9085 0.225103 29.1656C0.0768045 29.4226 -0.000853816 29.7144 7.08054e-06 30.0112L0.0281799 51.7742C0.0281799 52.0766 0.184304 52.358 0.45038 52.5059C0.577944 52.5825 0.723958 52.623 0.872776 52.623C1.0216 52.623 1.16761 52.5825 1.29517 52.5059L9.62845 47.72C10.1563 47.4062 10.501 46.8608 10.501 46.2559V36.0925C10.501 35.4861 10.8199 34.9296 11.3458 34.6283L14.8928 32.5733C15.1493 32.4242 15.441 32.3464 15.7376 32.3479C16.0272 32.3479 16.3246 32.4203 16.582 32.5733L20.1295 34.6283C20.387 34.776 20.6009 34.9893 20.7493 35.2465C20.8977 35.5037 20.9753 35.7956 20.9743 36.0925V46.2555C20.9743 46.8604 21.3225 47.4098 21.8468 47.7197L30.1801 52.5059C30.3077 52.5825 30.4537 52.623 30.6025 52.623C30.7513 52.623 30.8973 52.5825 31.0249 52.5059C31.1533 52.4316 31.2599 52.3248 31.3341 52.1963C31.4082 52.0679 31.4474 51.9221 31.4475 51.7738L31.4749 30.0112C31.4765 29.7142 31.3992 29.4222 31.2508 29.1649C31.1025 28.9077 30.8884 28.6946 30.6305 28.5473L16.582 20.4391C16.3445 20.2998 16.0918 20.2532 15.8222 20.2423H15.6531ZM141.892 20.4391C141.599 20.4391 141.311 20.5134 141.048 20.6645L126.999 28.7727C126.742 28.9207 126.529 29.134 126.38 29.3911C126.232 29.6481 126.154 29.9398 126.155 30.2365V46.4527C126.155 47.0627 126.498 47.6152 127.027 47.9169L140.963 55.8561C141.478 56.1496 142.106 56.1719 142.624 55.8835L151.07 51.1822C151.338 51.0335 151.519 50.7557 151.521 50.4505C151.522 50.3018 151.484 50.1555 151.409 50.0268C151.335 49.898 151.228 49.7915 151.098 49.7184L136.966 41.6101C136.701 41.4591 136.515 41.1535 136.515 40.8498V35.7826C136.515 35.4794 136.703 35.2016 136.966 35.0505L141.357 32.5166C141.486 32.4423 141.631 32.4031 141.78 32.4031C141.928 32.4031 142.074 32.4423 142.202 32.5166L146.594 35.0505C146.722 35.1245 146.829 35.2311 146.903 35.3596C146.977 35.4881 147.016 35.6339 147.016 35.7823V39.78C147.016 39.9284 147.055 40.0742 147.129 40.2027C147.203 40.3312 147.31 40.4378 147.438 40.5118C147.702 40.664 148.02 40.6644 148.283 40.5118L156.701 35.614C156.958 35.4654 157.171 35.2519 157.319 34.9949C157.468 34.738 157.546 34.4465 157.546 34.1498V30.2369C157.546 29.6324 157.225 29.0764 156.701 28.7727L142.737 20.6645C142.48 20.516 142.189 20.4379 141.892 20.4391ZM99.8874 32.5451C99.961 32.5451 100.047 32.5631 100.113 32.6011L104.927 35.3882C105.058 35.4637 105.153 35.6034 105.153 35.7541V41.3284C105.153 41.4798 105.059 41.6191 104.927 41.6946L100.113 44.4818C100.048 44.5185 99.9757 44.5378 99.9017 44.5378C99.8276 44.5378 99.7549 44.5185 99.6906 44.4818L94.8765 41.6946C94.7455 41.6187 94.6512 41.4798 94.6512 41.3284V35.7541C94.6512 35.603 94.7459 35.4645 94.8765 35.3882L99.6906 32.6015C99.7497 32.5647 99.8181 32.5453 99.8878 32.5455L99.8874 32.5451Z" fill="#404137"/>
<path d="M57.8553 20.3545C57.5626 20.3545 57.2731 20.4288 57.0109 20.5799L42.9625 28.66C42.437 28.9624 42.1177 29.5462 42.1177 30.1519V46.3681C42.1177 46.9746 42.4374 47.5286 42.9625 47.8323L57.0109 55.9401C57.2674 56.0892 57.5588 56.1677 57.8555 56.1677C58.1522 56.1677 58.4436 56.0892 58.7001 55.9401L72.7485 47.8323C73.0057 47.6842 73.2192 47.4708 73.3675 47.2137C73.5158 46.9566 73.5935 46.6649 73.5929 46.3681V30.1519C73.5929 29.5455 73.2736 28.9624 72.7485 28.66L58.7001 20.5799C58.4433 20.4316 58.1518 20.3538 57.8553 20.3545ZM141.865 34.8255C141.809 34.8255 141.746 34.8255 141.696 34.8537L138.993 36.4302C138.943 36.4582 138.901 36.4989 138.871 36.5484C138.841 36.5978 138.825 36.6542 138.824 36.7119V39.8085C138.824 39.9251 138.892 40.032 138.993 40.0903L141.696 41.6386C141.797 41.6973 141.905 41.6973 142.005 41.6386L144.708 40.0899C144.758 40.0617 144.8 40.021 144.83 39.9716C144.86 39.9223 144.876 39.8661 144.877 39.8085V36.7115C144.876 36.6539 144.86 36.5977 144.83 36.5484C144.8 36.4991 144.758 36.4583 144.708 36.4302L142.005 34.8533C141.955 34.8239 141.921 34.8255 141.865 34.8255Z" fill="#83CD29"/>
</svg>
