<svg width="120" height="120" viewBox="0 0 120 120" fill="none" xmlns="http://www.w3.org/2000/svg">
<path d="M60 112.5C88.9949 112.5 112.5 88.9949 112.5 60C112.5 31.0051 88.9949 7.5 60 7.5C31.0051 7.5 7.5 31.0051 7.5 60C7.5 88.9949 31.0051 112.5 60 112.5Z" fill="#8892BF"/>
<path d="M54.1469 37.5H60.4469L58.6664 46.9658H64.3274C67.432 47.0321 69.7446 47.7259 71.2668 49.0474C72.8189 50.3685 73.2756 52.8803 72.6366 56.5804L69.5778 73.0834H63.1863L66.1079 57.3236C66.412 55.6714 66.3209 54.4987 65.8341 53.805C65.3474 53.1112 64.2974 52.7644 62.6841 52.7644L57.6164 52.7149L53.8728 73.0834H47.5728L54.1469 37.5Z" fill="white"/>
<path fill-rule="evenodd" clip-rule="evenodd" d="M25.2784 46.9661H37.5135C41.1045 46.9987 43.707 48.1226 45.3202 50.3358C46.9335 52.5494 47.466 55.5723 46.9181 59.4052C46.7055 61.1568 46.2334 62.8743 45.5029 64.5596C44.8027 66.2444 43.8292 67.7639 42.5812 69.1188C41.0591 70.8367 39.4309 71.9268 37.6961 72.3899C35.9613 72.8527 34.1654 73.0837 32.3091 73.0837H26.8306L25.0958 82.4999H18.75L25.2784 46.9661ZM27.8807 67.4834L30.6108 52.6653H31.533C31.8681 52.6653 32.2177 52.6484 32.583 52.6158C35.0181 52.5828 37.0415 52.8307 38.655 53.3591C40.2982 53.8874 40.8461 55.8866 40.2982 59.3557C39.6292 63.4859 38.3197 65.8976 36.3722 66.5913C34.4246 67.2524 31.9895 67.5659 29.0677 67.5329H28.4285C28.2459 67.5329 28.0633 67.5161 27.8807 67.4834Z" fill="white"/>
<path fill-rule="evenodd" clip-rule="evenodd" d="M91.637 46.9661H79.4019L72.8735 82.4999H79.2193L80.9544 73.0837H86.4328C88.289 73.0837 90.0849 72.8527 91.8197 72.3899C93.5548 71.9268 95.1827 70.8367 96.7048 69.1188C97.9528 67.7639 98.9263 66.2444 99.6264 64.5596C100.357 62.8743 100.829 61.1568 101.042 59.4052C101.59 55.5723 101.057 52.5494 99.4438 50.3358C97.8305 48.1226 95.2284 46.9987 91.637 46.9661ZM84.7344 52.6653L82.0044 67.4834C82.187 67.5161 82.3697 67.5329 82.5523 67.5329H83.1913C86.1133 67.5659 88.5482 67.2524 90.4959 66.5913C92.4433 65.8976 93.7528 63.4859 94.4222 59.3557C94.97 55.8866 94.4222 53.8874 92.7785 53.3591C91.1653 52.8307 89.1418 52.5828 86.7065 52.6158C86.3413 52.6484 85.9918 52.6653 85.6565 52.6653H84.7344Z" fill="white"/>
</svg>
