<svg width="120" height="146" viewBox="0 0 120 146" fill="none" xmlns="http://www.w3.org/2000/svg">
<path fill-rule="evenodd" clip-rule="evenodd" d="M108.05 115.805L42.9884 135.188C42.5351 135.325 42.054 135.343 41.5919 135.239C41.1298 135.134 40.7026 134.912 40.352 134.594C40.0014 134.276 39.7394 133.872 39.5916 133.422C39.4438 132.973 39.4152 132.492 39.5087 132.028L62.7558 19.8863C62.8541 19.4282 63.0936 19.0124 63.4406 18.6973C63.7876 18.3823 64.2246 18.1837 64.6903 18.1297C65.156 18.0756 65.627 18.1687 66.037 18.3959C66.4471 18.623 66.7756 18.9729 66.9764 19.3962L110.012 111.467C110.205 111.877 110.306 112.323 110.31 112.776C110.314 113.228 110.219 113.676 110.032 114.088C109.846 114.501 109.572 114.868 109.23 115.164C108.888 115.46 108.485 115.679 108.05 115.805ZM119.209 111.228L69.3919 4.62189C68.7795 3.307 67.8202 2.18368 66.617 1.37264C65.4138 0.561597 64.0122 0.0934823 62.5628 0.018593C61.1132 -0.0810314 59.6643 0.221078 58.3756 0.891643C57.0869 1.56221 56.0084 2.57521 55.2589 3.81905L1.23651 92.022C0.412417 93.3571 -0.0161547 94.8983 0.000465691 96.4668C0.0170861 98.0354 0.478219 99.5671 1.33041 100.885L27.7495 142.116C28.745 143.657 30.2132 144.834 31.9343 145.471C33.6554 146.109 35.5368 146.171 37.2967 145.651L113.987 122.801C115.145 122.464 116.217 121.88 117.127 121.089C118.038 120.299 118.766 119.32 119.262 118.221C119.758 117.122 120.01 115.929 120 114.723C119.99 113.518 119.718 112.329 119.204 111.238L119.209 111.228Z" fill="white"/>
</svg>
