<svg width="120" height="107" viewBox="0 0 120 107" fill="none" xmlns="http://www.w3.org/2000/svg">
<path d="M53.248 78.3735C55.4486 78.4736 57.6973 78.5457 59.974 78.5457C62.2747 78.5457 64.5474 78.4976 66.776 78.3735C64.5474 81.2574 62.3467 83.8088 60.018 86.24L60.05 86.208C57.7333 83.8048 55.5087 81.2493 53.412 78.5898L53.248 78.3735ZM30.4491 75.1691C34.7824 76.2706 40.068 77.2079 45.4616 77.7847L45.9858 77.8287C49.2868 82.3668 52.6238 86.3602 56.2049 90.1173L56.1608 90.0692C50.9153 95.9291 43.8371 100.047 35.8307 101.525L35.6107 101.557C35.5947 101.557 35.5787 101.557 35.5627 101.557C34.5704 101.557 33.6341 101.312 32.8138 100.88L32.8459 100.896C29.5169 98.9932 28.0724 91.7154 29.1968 82.3628C29.4648 80.0597 29.905 77.6365 30.4451 75.1651L30.4491 75.1691ZM89.5989 75.1171C90.071 77.0156 90.5152 79.4349 90.8312 81.8942L90.8673 82.2387C92.0156 91.5873 90.5992 98.857 87.2982 100.8C86.562 101.208 85.6817 101.449 84.7454 101.449C84.6534 101.449 84.5614 101.445 84.4693 101.441H84.4813C76.2669 99.9385 69.1928 95.849 63.9592 90.0612L63.9312 90.0292C67.4482 86.3322 70.7612 82.3468 73.7981 78.1532L74.0302 77.8167C79.936 77.1999 85.2296 76.2466 90.3871 74.9448L89.5989 75.1131V75.1171ZM35.1265 60.169C36.1268 62.1316 37.1751 64.0862 38.3275 66.0489C39.4772 68.0008 40.6522 69.9074 41.8526 71.7686C38.3795 71.2599 35.0265 70.619 31.8215 69.838C32.7218 66.6857 33.8502 63.4213 35.1225 60.161L35.1265 60.169ZM84.8535 60.0688C86.1779 63.3573 87.3022 66.6377 88.2345 69.818C85.0335 70.603 81.6525 71.2679 78.1554 71.7686C79.3558 69.89 80.5562 67.9555 81.6805 65.9728C82.8048 64.0222 83.8572 62.0275 84.8615 60.0648L84.8535 60.0688ZM26.4639 38.644C28.2085 44.564 30.081 49.5146 32.2617 54.2891L31.9616 53.5601C30.097 57.5855 28.2525 62.5081 26.74 67.5749L26.532 68.396C23.7071 67.5269 21.4344 66.6737 19.2218 65.7164L19.6819 65.8927C11.0233 62.2037 5.42163 57.3532 5.42163 53.508C5.42163 49.6628 11.0233 44.7883 19.6819 41.1153C21.7825 40.2141 24.0872 39.401 26.4639 38.644ZM93.44 38.624C95.8608 39.373 98.1614 40.2101 100.314 41.1153C108.973 44.8203 114.574 49.6628 114.574 53.508C114.55 57.3532 108.949 62.2157 100.29 65.8967C98.1895 66.7979 95.8888 67.607 93.5161 68.364C91.7555 62.424 89.883 57.4773 87.7103 52.6949L88.0144 53.4479C89.871 49.4265 91.7195 44.5039 93.228 39.4371L93.44 38.612V38.624ZM78.1234 35.2474C81.6005 35.7641 84.9495 36.397 88.1545 37.186C87.2542 40.3503 86.1298 43.6027 84.8535 46.8631C83.8532 44.9124 82.8048 42.9458 81.6525 40.9872C80.5282 39.0245 79.3278 37.1139 78.1274 35.2514L78.1234 35.2474ZM41.8245 35.2474C40.6242 37.134 39.4238 39.0646 38.3035 41.0552C37.1792 43.0059 36.1268 44.9685 35.1265 46.9312C33.8021 43.6467 32.6778 40.3743 31.7455 37.186C34.9465 36.437 38.3195 35.7681 41.8205 35.2554L41.8245 35.2474ZM59.998 33.9737C63.6991 33.9737 67.3842 34.1419 71.0093 34.4383C73.0392 37.3516 75.0105 40.4544 76.9231 43.7469C78.7823 46.9512 80.4788 50.1982 82.0126 53.488C80.4721 56.7684 78.7836 60.0448 76.9471 63.2491C75.0465 66.5536 73.0819 69.6978 71.0453 72.6097C67.4042 72.9261 63.7151 73.0984 59.994 73.0984C56.2929 73.0984 52.6078 72.9221 48.9827 72.6337C46.9541 69.7218 44.9735 66.6056 43.0689 63.3252C41.2097 60.1209 39.5132 56.8739 37.9794 53.5841C39.4958 50.2957 41.2084 47.0113 43.0449 43.8029C44.9455 40.4985 46.9101 37.3663 48.9467 34.4544C52.5878 34.1339 56.2769 33.9657 59.998 33.9657V33.9737ZM59.922 20.832C62.2427 23.2353 64.4673 25.7867 66.56 28.4463L66.72 28.6586C64.5194 28.5584 62.2707 28.4903 59.994 28.4903C57.6933 28.4903 55.4206 28.5384 53.192 28.6586C55.4166 25.7747 57.6173 23.2233 59.95 20.792L59.918 20.824L59.922 20.832ZM35.5107 5.56349C43.7251 7.06951 50.7952 11.159 56.0328 16.9428L56.0608 16.9748C52.5438 20.6758 49.2308 24.6612 46.1939 28.8628L45.9618 29.1993C40.06 29.8121 34.7664 30.7574 29.6129 32.0591L30.3971 31.8909C29.837 29.4396 29.4208 27.0644 29.1287 24.7854C27.9804 15.4368 29.3968 8.16699 32.6978 6.23239C33.5221 5.84386 34.4863 5.60354 35.5026 5.5715H35.5147L35.5107 5.56349ZM84.3653 5.46335V5.49539C84.4173 5.49539 84.4773 5.49139 84.5414 5.49139C85.4977 5.49139 86.3979 5.72771 87.1902 6.14427L87.1581 6.12825C90.4871 8.03882 91.9316 15.3126 90.8072 24.6692C90.5392 26.9723 90.099 29.3996 89.5589 31.8749C85.2176 30.7614 79.932 29.8201 74.5384 29.2474L74.0262 29.2033C70.7212 24.6612 67.3842 20.6678 63.8031 16.9068L63.8511 16.9548C69.0967 11.1069 76.1629 6.98941 84.1533 5.50341L84.3773 5.46736L84.3653 5.46335ZM84.3893 0.0080102C74.6184 1.49401 66.1598 6.2444 59.982 13.0976L59.95 13.1337C53.7281 6.28446 45.2696 1.56611 35.7387 0.136183L35.5147 0.108145C35.4626 0.108145 35.3986 0.108145 35.3346 0.108145C33.37 0.108145 31.5255 0.624841 29.929 1.53006L29.985 1.50202C23.1109 5.47136 21.5705 17.84 25.1195 33.3609C9.89897 38.0672 0 45.5893 0 53.516C0 61.4747 9.95099 69.0169 25.2156 73.6872C21.6945 89.2681 23.267 101.657 30.157 105.622C31.6695 106.491 33.486 107 35.4186 107C35.5067 107 35.5947 107 35.6787 106.996H35.6667C45.4376 105.51 53.8962 100.756 60.074 93.8984L60.106 93.8623C66.3279 100.716 74.7864 105.434 84.3173 106.864L84.5414 106.892C84.6014 106.892 84.6774 106.892 84.7494 106.892C86.702 106.892 88.5386 106.379 90.127 105.486L90.071 105.514C96.9411 101.549 98.4855 89.18 94.9365 73.6551C110.101 68.9888 120 61.4507 120 53.512C120 45.5533 110.049 38.0112 94.7844 33.3289C98.3055 17.7639 96.733 5.36322 89.843 1.39388C88.3145 0.516695 86.4819 0 84.5294 0C84.4773 0 84.4253 0 84.3733 0H84.3813L84.3893 0.0080102ZM71.1493 53.516C71.1493 59.6963 66.1438 64.7071 59.97 64.7071C53.7961 64.7071 48.7906 59.6963 48.7906 53.516C48.7906 47.3357 53.7961 42.325 59.97 42.325C63.0589 42.325 65.8518 43.5786 67.8764 45.6014C69.901 47.6281 71.1493 50.4238 71.1493 53.516Z" fill="white"/>
</svg>
