<svg width="120" height="120" viewBox="0 0 120 120" fill="none" xmlns="http://www.w3.org/2000/svg">
<path fill-rule="evenodd" clip-rule="evenodd" d="M112.65 31.2129C112.908 33.1269 113.052 35.1719 113.052 37.3799C113.052 47.9279 112.074 48.5223 90.162 111.864C108 101.46 120 82.134 120 60C120 49.566 117.336 39.7569 112.65 31.2129ZM61.056 65.25L43.05 117.557C55.2 121.133 68.076 120.768 79.926 116.604C79.764 116.346 79.62 116.069 79.5 115.775L61.056 65.25ZM100.506 56.9707C100.506 49.5547 97.842 44.4169 95.556 40.4209C92.52 35.4769 89.664 31.2965 89.664 26.3525C89.664 20.8385 93.852 15.7031 99.744 15.7031C100.008 15.7031 100.26 15.738 100.518 15.75C89.844 5.97 75.624 0 60 0C39.042 0 20.598 10.751 9.87003 27.041C13.692 27.161 18.822 27.2104 29.724 26.3584C32.958 26.1664 33.336 30.9169 30.108 31.2949C30.108 31.2949 26.856 31.6801 23.238 31.8721L45.09 96.8643L58.218 57.4805L48.87 31.8662C45.642 31.6802 42.582 31.2949 42.582 31.2949C39.348 31.1029 39.726 26.1605 42.96 26.3525C55.362 27.3065 61.71 27.3785 74.754 26.3525C77.988 26.1605 78.372 30.9109 75.138 31.2949C75.138 31.2949 71.88 31.6802 68.268 31.8662L89.952 96.3662C98.514 67.7582 100.506 62.9707 100.506 56.9707ZM0 60C0 83.748 13.8 104.274 33.816 114L5.19598 35.5811C1.86598 43.0451 0 51.3 0 60Z" fill="white"/>
</svg>
