<svg width="800" height="800" viewBox="0 0 800 800" fill="none" xmlns="http://www.w3.org/2000/svg">
<g clip-path="url(#clip0_108_39)">
<path d="M382.2 214.836C341.336 214.836 308.087 248.083 308.087 288.948C308.087 329.812 341.334 363.061 382.2 363.061C423.066 363.061 456.311 329.814 456.311 288.948C456.31 248.08 423.064 214.836 382.2 214.836ZM382.2 335.748C356.395 335.748 335.398 314.752 335.398 288.946C335.398 263.14 356.394 242.146 382.2 242.146C408.005 242.146 429 263.141 429 288.946C428.999 314.752 408.003 335.748 382.2 335.748Z" fill="#15385D"/>
<path d="M706.368 192.256C679.585 192.256 657.794 214.047 657.794 240.83C657.794 267.613 679.585 289.404 706.368 289.404C733.151 289.404 754.942 267.613 754.942 240.83C754.94 214.047 733.149 192.256 706.368 192.256ZM706.368 262.093C694.644 262.093 685.105 252.554 685.105 240.83C685.105 229.107 694.643 219.567 706.368 219.567C718.093 219.567 727.63 229.107 727.63 240.83C727.629 252.555 718.091 262.093 706.368 262.093Z" fill="#15385D"/>
<path d="M744.996 61.5614L546.417 61.5536C516.087 61.5536 491.412 86.2366 491.412 116.576V179.267H409.53C409.511 179.267 409.495 179.265 409.477 179.265H111.316C111.282 179.265 111.248 179.267 111.21 179.267H58.3598C26.1799 179.267 0 205.448 0 237.627V588.276C0 620.456 26.1799 646.636 58.3598 646.636H267.451L249.014 721.524C248.999 721.588 248.993 721.654 248.979 721.718C248.904 722.046 248.844 722.379 248.793 722.717C248.768 722.879 248.738 723.04 248.718 723.204C248.68 723.527 248.663 723.857 248.649 724.192C248.641 724.359 248.625 724.529 248.624 724.698C248.624 724.731 248.619 724.762 248.619 724.793C248.619 725.201 248.644 725.604 248.678 726.002C248.683 726.054 248.68 726.106 248.686 726.157C248.735 726.657 248.816 727.151 248.918 727.635C248.93 727.698 248.95 727.757 248.964 727.821C249.06 728.238 249.171 728.649 249.302 729.051C249.339 729.165 249.386 729.279 249.427 729.393C249.55 729.737 249.683 730.076 249.833 730.407C249.896 730.543 249.963 730.679 250.03 730.813C250.18 731.115 250.338 731.412 250.507 731.701C250.591 731.843 250.674 731.984 250.763 732.123C250.941 732.403 251.133 732.673 251.332 732.938C251.399 733.029 251.455 733.128 251.527 733.218C251.558 733.256 251.594 733.292 251.625 733.329C251.866 733.629 252.121 733.913 252.385 734.192C252.455 734.267 252.519 734.346 252.593 734.42C252.932 734.76 253.286 735.081 253.66 735.382C253.758 735.462 253.861 735.532 253.961 735.61C254.246 735.829 254.535 736.04 254.835 736.237C254.964 736.321 255.099 736.398 255.232 736.478C255.518 736.651 255.808 736.817 256.11 736.967C256.249 737.037 256.388 737.103 256.529 737.168C256.836 737.312 257.147 737.442 257.468 737.562C257.608 737.615 257.747 737.668 257.888 737.717C258.219 737.829 258.557 737.924 258.897 738.012C259.036 738.048 259.171 738.089 259.308 738.118C259.669 738.198 260.035 738.259 260.407 738.307C260.53 738.323 260.652 738.349 260.779 738.364C261.271 738.417 261.769 738.449 262.274 738.449H426.899H534.979C542.523 738.449 548.636 732.335 548.636 724.793C548.636 717.252 542.523 711.138 534.979 711.138H444.321L460.197 646.641L699.026 646.633C727.818 646.633 751.245 623.217 751.245 594.433V476.307C778.644 473.191 800.002 449.88 800.002 421.663V116.571C800.006 86.2366 775.328 61.5614 744.996 61.5614ZM562.414 116.571C562.414 101.299 574.839 88.8741 590.112 88.8741H744.996C760.27 88.8726 772.695 101.298 772.695 116.571V132.67H562.414V116.571ZM562.412 159.978H772.693V376.531H766.164L697.446 300.912C694.857 298.065 691.187 296.44 687.34 296.44C683.493 296.44 679.822 298.063 677.233 300.912L657.724 322.378L609.277 269.085C606.689 266.24 603.019 264.615 599.172 264.615C595.327 264.615 591.656 266.238 589.069 269.086L562.414 298.412L562.412 159.978ZM729.26 376.531H706.954L676.18 342.681L687.34 330.401L729.26 376.531ZM562.415 337.926L562.958 338.418L599.175 298.573L670.047 376.531H562.415V337.926ZM518.723 116.577C518.723 102.654 529.049 91.1273 542.434 89.1866C537.781 97.2586 535.101 106.604 535.101 116.573V421.659C535.101 431.621 537.776 440.964 542.426 449.032C529.045 447.086 518.721 435.571 518.721 421.659V116.577H518.723ZM86.4085 486.616L196.262 373.709L342.306 534.342H86.4085V486.616ZM316.445 465.279L349.256 429.174L444.824 534.338H379.212V534.34L316.445 465.279ZM65.4302 619.324H58.3598C41.2394 619.325 27.3112 605.397 27.3112 588.276V237.627C27.3112 220.506 41.2394 206.578 58.3598 206.578H65.4302C61.3942 213.984 59.0973 222.472 59.0973 231.481V594.426C59.0973 603.436 61.3927 611.919 65.4302 619.324ZM416.197 711.134H279.699L295.576 646.636H432.074L416.197 711.134ZM723.938 594.43C723.938 608.153 712.765 619.319 699.03 619.319H111.316C97.582 619.319 86.4085 608.155 86.4085 594.43V561.653H723.938V594.43ZM723.938 534.342H481.727L359.364 399.687C356.775 396.841 353.106 395.216 349.257 395.216C345.41 395.216 341.74 396.839 339.153 399.687L297.99 444.98L206.703 344.596C204.169 341.81 200.597 340.193 196.831 340.131C193.028 340.118 189.439 341.562 186.814 344.262L86.41 447.455V231.483C86.41 217.767 97.5554 206.608 111.265 206.58H491.413V421.659C491.413 451.988 516.088 476.663 546.418 476.663L723.94 476.668V534.342H723.938ZM772.695 421.658C772.695 436.932 760.27 449.357 744.996 449.357L590.006 449.352C574.781 449.294 562.412 436.896 562.412 421.658V403.842H772.693V421.658H772.695Z" fill="#15385D"/>
</g>
<defs>
<clipPath id="clip0_108_39">
<rect width="800" height="800" fill="white"/>
</clipPath>
</defs>
</svg>
