<svg width="800" height="800" viewBox="0 0 800 800" fill="none" xmlns="http://www.w3.org/2000/svg">
<path d="M146.657 71.8343C179.349 59.7312 216.429 67.4953 241.526 92.5851C276.636 127.695 276.636 184.637 241.524 219.748C206.404 254.868 149.471 254.868 114.351 219.748C89.156 194.553 81.4411 157.268 93.7521 124.487C96.8591 116.215 92.6716 106.991 84.3989 103.884C76.1263 100.777 66.9021 104.964 63.795 113.237C47.1099 157.666 57.57 208.222 91.7239 242.376C139.34 289.992 216.535 289.992 264.151 242.376C311.76 194.767 311.76 117.565 264.151 69.9562C230.135 35.9484 179.856 25.4211 135.547 41.825C127.26 44.8929 123.029 54.0976 126.097 62.3843C129.165 70.6711 138.37 74.9023 146.657 71.8343Z" fill="#15385D"/>
<path d="M126.117 70.2539L167.429 111.558C170.813 114.944 170.813 120.449 167.428 123.834L145.613 145.649C142.221 149.041 136.728 149.041 133.336 145.649L92.2471 104.568C85.9979 98.3203 75.8674 98.3211 69.6197 104.57C63.3721 110.82 63.3729 120.95 69.6221 127.198L110.71 168.277C126.598 184.165 152.353 184.165 168.241 168.277L190.056 146.461C205.936 130.581 205.936 104.823 190.061 88.9343L148.743 47.6242C142.494 41.3765 132.363 41.3773 126.116 47.6265C119.868 53.8757 119.868 64.0062 126.117 70.2539ZM653.47 684.748C620.778 696.852 583.698 689.087 558.602 663.998C523.492 628.887 523.492 571.946 558.603 536.834C593.723 501.715 650.656 501.715 685.776 536.834C710.971 562.03 718.686 599.315 706.375 632.095C703.268 640.368 707.456 649.592 715.728 652.699C724.001 655.806 733.225 651.619 736.332 643.346C753.017 598.917 742.557 548.361 708.403 514.207C660.787 466.591 583.592 466.591 535.976 514.207C488.367 561.816 488.367 639.018 535.976 686.627C569.992 720.634 620.271 731.162 664.581 714.758C672.867 711.69 677.099 702.485 674.031 694.198C670.963 685.912 661.758 681.68 653.471 684.748H653.47Z" fill="#15385D"/>
<path d="M674.011 686.33L632.707 645.026C629.317 641.635 629.317 636.137 632.703 632.754L654.518 610.931C657.907 607.541 663.4 607.541 666.792 610.934L707.881 652.015C714.13 658.262 724.261 658.262 730.508 652.012C736.756 645.763 736.755 635.633 730.506 629.385L689.418 588.305C673.53 572.418 647.775 572.418 631.887 588.306L610.077 610.124C594.19 625.998 594.19 651.764 610.079 667.654L651.383 708.958C657.632 715.206 667.762 715.206 674.011 708.958C680.259 702.709 680.259 692.579 674.011 686.33L674.011 686.33ZM526.946 554.71L221.275 249.038C215.026 242.79 204.896 242.79 198.647 249.038C192.399 255.287 192.399 265.417 198.647 271.666L504.319 577.337C510.568 583.586 520.698 583.586 526.946 577.337C533.195 571.089 533.195 560.959 526.946 554.71ZM268.586 196.173L581.379 508.965C587.627 515.213 597.757 515.213 604.006 508.965C610.254 502.716 610.254 492.586 604.006 486.337L291.214 173.545C284.965 167.297 274.835 167.297 268.586 173.545C262.338 179.794 262.338 189.924 268.586 196.173ZM468.521 284.079L606.593 146.007C612.842 139.759 612.842 129.628 606.593 123.38C600.345 117.131 590.214 117.131 583.966 123.38L445.894 261.452C439.646 267.7 439.646 277.83 445.894 284.079C452.143 290.327 462.273 290.327 468.521 284.079ZM636.016 166.959L493.4 308.191C487.121 314.409 487.072 324.539 493.29 330.818C499.508 337.097 509.639 337.146 515.918 330.928L658.533 189.696C664.812 183.478 664.861 173.348 658.643 167.069C652.425 160.79 642.295 160.741 636.016 166.959Z" fill="#15385D"/>
<path d="M738.862 80.35C740.985 82.4727 742.468 85.1498 743.141 88.0753C743.814 91.0008 743.651 94.0567 742.669 96.8937L720.637 160.59C719.845 162.88 718.544 164.96 716.83 166.673C715.117 168.386 713.037 169.688 710.747 170.48L647.044 192.52C644.206 193.502 641.15 193.665 638.224 192.992C635.298 192.319 632.62 190.836 630.497 188.712L588.841 147.048C586.719 144.926 585.236 142.249 584.563 139.323C583.89 136.398 584.054 133.342 585.035 130.505L607.067 66.8093C607.859 64.5197 609.161 62.4398 610.874 60.7266C612.587 59.0134 614.667 57.7116 616.956 56.9195L680.652 34.8797C683.489 33.8978 686.546 33.7342 689.471 34.4074C692.397 35.0806 695.075 36.5636 697.198 38.6867L738.862 80.3507L738.862 80.35ZM681.653 68.3953L634.769 84.6179L618.551 131.504L646.047 159.005L692.938 142.781L709.155 95.8968L681.654 68.3953H681.653ZM352.618 493.841L163.114 683.344C157.257 689.202 150.222 689.959 147.697 687.436L89.4616 629.201C86.9436 626.68 87.7006 619.649 93.5616 613.784L282.694 424.66C288.942 418.412 288.942 408.281 282.694 402.033C276.447 395.784 266.315 395.784 260.067 402.032L70.9311 591.16C53.5248 608.578 50.6162 635.595 66.8303 651.823L125.075 710.067C141.308 726.286 168.337 723.377 185.742 705.971L375.246 516.467C381.494 510.219 381.494 500.088 375.246 493.84C368.997 487.591 358.867 487.591 352.619 493.84L352.618 493.841Z" fill="#15385D"/>
</svg>
