<svg width="800" height="800" viewBox="0 0 800 800" fill="none" xmlns="http://www.w3.org/2000/svg">
<path d="M300 500C281.591 500 266.667 514.923 266.667 533.333C266.667 551.743 281.591 566.667 300 566.667C318.41 566.667 333.334 551.743 333.334 533.333C333.334 514.923 318.41 500 300 500Z" fill="#15385D"/>
<path d="M466.667 533.333C466.667 514.923 481.59 500 500 500C518.41 500 533.334 514.923 533.334 533.333C533.334 551.743 518.41 566.667 500 566.667C481.59 566.667 466.667 551.743 466.667 533.333Z" fill="#15385D"/>
<path fill-rule="evenodd" clip-rule="evenodd" d="M400 33.3334C363.18 33.3334 333.333 63.181 333.333 100C333.333 124.676 346.74 146.221 366.667 157.748V233.333H200C144.772 233.333 100 278.105 100 333.333V666.667C100 721.897 144.772 766.667 200 766.667H600C655.23 766.667 700 721.897 700 666.667V333.333C700 278.105 655.23 233.333 600 233.333H433.333V157.748C453.26 146.221 466.667 124.676 466.667 100C466.667 63.181 436.82 33.3334 400 33.3334ZM166.667 333.333C166.667 314.924 181.591 300 200 300H246.066L294.306 396.48C305.599 419.067 328.683 433.333 353.933 433.333H446.067C471.317 433.333 494.4 419.067 505.693 396.48L553.933 300H600C618.41 300 633.333 314.924 633.333 333.333V666.667C633.333 685.077 618.41 700 600 700H200C181.591 700 166.667 685.077 166.667 666.667V333.333ZM446.067 366.667L479.4 300H320.601L353.933 366.667H446.067Z" fill="#15385D"/>
<path d="M33.3333 466.667C14.9238 466.667 0 481.59 0 500V566.667C0 585.077 14.9238 600 33.3333 600C51.7427 600 66.6667 585.077 66.6667 566.667V500C66.6667 481.59 51.7427 466.667 33.3333 466.667Z" fill="#15385D"/>
<path d="M733.333 500C733.333 481.59 748.256 466.667 766.666 466.667C785.076 466.667 800 481.59 800 500V566.667C800 585.077 785.076 600 766.666 600C748.256 600 733.333 585.077 733.333 566.667V500Z" fill="#15385D"/>
</svg>
