<svg width="600" height="767" viewBox="0 0 600 767" fill="none" xmlns="http://www.w3.org/2000/svg">
<path fill-rule="evenodd" clip-rule="evenodd" d="M300 0.333332C274.49 0.333332 254.31 4.5236 238.557 12.3071C232.817 15.143 227.355 18.4891 222.954 21.239L219.679 23.2936C216.381 25.3668 213.607 27.1111 210.694 28.7949C203.155 33.1528 200.298 33.6164 200.018 33.662C200.006 33.662 199.994 33.6658 200.018 33.662C163.199 33.662 133.333 63.5143 133.333 100.333H100C44.7717 100.333 0 145.105 0 200.333V667C0 722.23 44.7717 767 100 767H500C555.23 767 600 722.23 600 667V200.333C600 145.105 555.23 100.333 500 100.333H466.667C466.667 63.5143 436.82 33.6667 400 33.6667C400.023 33.6703 400.01 33.6667 400 33.6667C399.72 33.6211 396.847 33.1528 389.307 28.7949C386.393 27.111 383.62 25.3668 380.32 23.2935L377.047 21.239C372.643 18.4891 367.183 15.143 361.443 12.3071C345.69 4.5236 325.51 0.333332 300 0.333332ZM487.5 700.333C487.5 700.333 424.677 700.333 400 700.333H200C175.324 700.333 149.5 700.333 116.5 700.333H100L81.25 697.417L62.5 694.5L100 700.333H500H487.5ZM268.087 72.0763C272.087 70.1003 281.417 67 300 67C318.583 67 327.913 70.1003 331.913 72.0763C334.427 73.3177 337.453 75.1113 341.72 77.7777L344.203 79.336C347.667 81.514 351.843 84.1427 355.943 86.513C365.707 92.1563 381.443 100.333 400 100.333V133.667H200V100.333C218.555 100.333 234.293 92.1563 244.057 86.513C248.157 84.1427 252.333 81.5143 255.797 79.336L258.28 77.7777C262.547 75.1113 265.573 73.3177 268.087 72.0763Z" fill="#66B848"/>
<path d="M468.793 238L253.914 469.16L164.207 372.656L135 404.076L239.31 516.29L253.914 532L268.517 516.29L498 269.42L468.793 238Z" fill="white"/>
</svg>
