<svg width="600" height="767" viewBox="0 0 600 767" fill="none" xmlns="http://www.w3.org/2000/svg">
<path fill-rule="evenodd" clip-rule="evenodd" d="M300 0C274.49 0 254.31 4.19027 238.557 11.9738C232.817 14.8097 227.355 18.1558 222.954 20.9057L219.679 22.9603C216.381 25.0334 213.607 26.7778 210.694 28.4616C203.155 32.8195 200.298 33.2831 200.018 33.3286C200.006 33.3286 199.994 33.3324 200.018 33.3286C163.199 33.3286 133.333 63.181 133.333 100H100C44.7717 100 0 144.772 0 200V666.667C0 721.897 44.7717 766.667 100 766.667H500C555.23 766.667 600 721.897 600 666.667V200C600 144.772 555.23 100 500 100H466.667C466.667 63.181 436.82 33.3333 400 33.3333C400.023 33.337 400.01 33.3333 400 33.3333C399.72 33.2878 396.847 32.8195 389.307 28.4616C386.393 26.7777 383.62 25.0335 380.32 22.9601L377.047 20.9057C372.643 18.1558 367.183 14.8097 361.443 11.9738C345.69 4.19027 325.51 0 300 0ZM457.747 166.667C446.22 186.593 424.677 200 400 200H200C175.324 200 153.779 186.593 142.252 166.667H100C81.5907 166.667 66.6667 181.591 66.6667 200V666.667C66.6667 685.077 81.5907 700 100 700H500C518.41 700 533.333 685.077 533.333 666.667V200C533.333 181.591 518.41 166.667 500 166.667H457.747ZM268.087 71.743C272.087 69.767 281.417 66.6667 300 66.6667C318.583 66.6667 327.913 69.767 331.913 71.743C334.427 72.9843 337.453 74.778 341.72 77.4443L344.203 79.0027C347.667 81.1807 351.843 83.8093 355.943 86.1797C365.707 91.823 381.443 100 400 100V133.333H200V100C218.555 100 234.293 91.823 244.057 86.1797C248.157 83.8093 252.333 81.181 255.797 79.0027L258.28 77.4443C262.547 74.778 265.573 72.9843 268.087 71.743Z" fill="#15385D"/>
</svg>
