<svg width="800" height="509" viewBox="0 0 800 509" fill="none" xmlns="http://www.w3.org/2000/svg">
<path d="M767 302.25L719.5 318.25L678.25 91.75L784.25 49.25C787.304 48.0353 790.088 46.2311 792.444 43.9404C794.8 41.6497 796.681 38.9174 797.981 35.8995C799.281 32.8816 799.974 29.6372 800.02 26.3515C800.066 23.0658 799.465 19.8033 798.25 16.75C797.036 13.6968 795.231 10.9127 792.941 8.55675C790.65 6.20078 787.918 4.31907 784.9 3.01905C781.882 1.71903 778.638 1.02617 775.352 0.980008C772.066 0.933848 768.804 1.5353 765.75 2.75003L640.75 52.75C635.303 54.8157 630.748 58.719 627.873 63.7856C624.997 68.8522 623.981 74.7641 625 80.5V85L565.25 114.75C561.099 116.856 556.443 117.761 551.805 117.364C547.167 116.966 542.733 115.282 539 112.5L478.25 66C465.268 56.2634 449.478 51 433.25 51H365.5C356.293 51.0045 347.266 53.5513 339.414 58.3596C331.562 63.1679 325.19 70.051 321 78.25L276.25 76C271.916 75.8165 267.608 76.7642 263.75 78.75L222 99.5L150 81.5V78.25C150.532 73.1779 149.5 68.0645 147.042 63.5959C144.584 59.1273 140.819 55.5172 136.25 53.25L36.2503 3.25003C30.423 0.823407 23.8934 0.691033 17.9725 2.87949C12.0516 5.06794 7.17773 9.4152 4.32945 15.0485C1.48117 20.6817 0.869335 27.1839 2.61678 33.2496C4.36422 39.3153 8.34158 44.4955 13.7503 47.75L98.5003 90.25L78.0003 316.75L33.0003 301.75C29.7665 300.699 26.3574 300.296 22.9678 300.563C19.5781 300.83 16.2742 301.762 13.2447 303.306C10.2151 304.849 7.51936 306.975 5.31124 309.56C3.10311 312.146 1.42588 315.141 0.375303 318.375C-0.675272 321.609 -1.07862 325.018 -0.811698 328.408C-0.544781 331.797 0.38717 335.101 1.93094 338.131C3.47472 341.16 5.60008 343.856 8.18569 346.064C10.7713 348.272 13.7665 349.949 17.0003 351L92.0003 376C94.6548 376.36 97.3458 376.36 100 376C104.856 375.904 109.601 374.524 113.75 372C116.923 369.931 119.585 367.168 121.534 363.92C123.483 360.672 124.668 357.023 125 353.25L127 330L159.25 346C162.242 364.555 171.938 381.368 186.5 393.25L330.75 496.75C335.878 500.981 341.798 504.147 348.164 506.063C354.53 507.979 361.214 508.606 367.825 507.907C374.436 507.209 380.842 505.199 386.667 501.996C392.492 498.792 397.62 494.459 401.75 489.25C411.265 492.866 421.432 494.445 431.595 493.885C441.758 493.325 451.691 490.639 460.75 486L596 418.5C604.164 414.377 611.231 408.374 616.62 400.985C622.01 393.596 625.568 385.033 627 376C627.25 373.339 627.25 370.661 627 368L674.5 352.25V355.25C675.134 358.757 676.51 362.089 678.537 365.021C680.563 367.953 683.193 370.418 686.25 372.25C690.373 374.808 695.15 376.111 700 376C702.711 375.95 705.403 375.529 708 374.75L783 349.75C786.119 348.699 789.001 347.045 791.48 344.881C793.96 342.717 795.988 340.085 797.451 337.137C798.913 334.189 799.781 330.981 800.004 327.698C800.227 324.414 799.801 321.119 798.75 318C797.7 314.881 796.045 312 793.881 309.52C791.717 307.041 789.085 305.012 786.137 303.549C783.189 302.087 779.982 301.219 776.698 300.996C773.414 300.773 770.119 301.199 767 302.25ZM217 353.75C213.047 350.458 210.205 346.027 208.863 341.061C207.521 336.095 207.743 330.835 209.5 326C209.751 325.132 210.232 324.349 210.892 323.732C211.553 323.116 212.367 322.69 213.25 322.5C214.75 322.5 216.75 322.5 219.75 324.5L371 433.75L362.75 458.75L217 353.75ZM573.5 373.75L438.25 441.25C432.364 444.239 425.533 444.779 419.25 442.75C420.862 433.87 420.039 424.718 416.87 416.268C413.701 407.817 408.304 400.381 401.25 394.75L251.25 285.5C244.139 279.841 235.746 276.016 226.81 274.359C217.874 272.703 208.668 273.266 200 276C188.07 279.451 177.667 286.857 170.5 297L136.5 280C135.073 279.355 133.556 278.933 132 278.75L145.25 133L220.25 151.5L225 151C228.914 150.977 232.767 150.035 236.25 148.25L280.25 126H296.5L277.75 163.75C274.785 169.654 274.278 176.492 276.339 182.77C278.4 189.047 282.862 194.253 288.75 197.25L294 200C310.275 208.166 328.965 210.133 346.584 205.533C364.202 200.933 379.545 190.08 389.75 175H414.75L574.25 357.25C574.907 358.554 575.659 359.807 576.5 361C577.358 361.771 577.995 362.756 578.347 363.854C578.698 364.952 578.751 366.124 578.5 367.25C578.611 368.556 578.339 369.867 577.718 371.021C577.096 372.175 576.152 373.123 575 373.75H573.5ZM607.5 322L443.5 134.5C441.186 131.865 438.342 129.746 435.155 128.281C431.967 126.817 428.508 126.04 425 126H375C370.384 126.014 365.861 127.306 361.934 129.733C358.006 132.16 354.828 135.627 352.75 139.75L350 145C347.35 150.268 342.922 154.43 337.5 156.75L365.5 101H433.25C438.66 101 443.923 102.754 448.25 106L510.25 152.5C521.397 160.836 534.643 165.906 548.507 167.142C562.371 168.378 576.305 165.732 588.75 159.5L635.5 136.25L665.75 302.75L607.5 322Z" fill="#15385D"/>
</svg>
